HIERARCHY
ROOT root
{
	OFFSET 0.000000 0.000000 0.000000
	CHANNELS 6 Xposition Yposition Zposition Zrotation Yrotation Xrotation
	JOINT lhip
	{
		OFFSET 0.058581 -0.082280 -0.017664
		CHANNELS 3 Zrotation Yrotation Xrotation
		JOINT lknee
		{
			OFFSET 0.043451 -0.386469 0.008037
			CHANNELS 3 Zrotation Yrotation Xrotation
			JOINT lankle
			{
				OFFSET -0.014790 -0.426874 -0.037428
				CHANNELS 3 Zrotation Yrotation Xrotation
				JOINT ltoe
				{
					OFFSET 0.041054 -0.060286 0.122042
					CHANNELS 3 Zrotation Yrotation Xrotation
					End Site
					{
						OFFSET 0.000000 0.000000 0.000000
					}
				}
			}
		}
	}
	JOINT rhip
	{
		OFFSET -0.060310 -0.090513 -0.013543
		CHANNELS 3 Zrotation Yrotation Xrotation
		JOINT rknee
		{
			OFFSET -0.043257 -0.383688 -0.004843
			CHANNELS 3 Zrotation Yrotation Xrotation
			JOINT rankle
			{
				OFFSET 0.019056 -0.420046 -0.034562
				CHANNELS 3 Zrotation Yrotation Xrotation
				JOINT rtoe
				{
					OFFSET -0.034840 -0.062106 0.130323
					CHANNELS 3 Zrotation Yrotation Xrotation
					End Site
					{
						OFFSET 0.000000 0.000000 0.000000
					}
				}
			}
		}
	}
	JOINT lowerback
	{
		OFFSET 0.004439 0.124404 -0.038385
		CHANNELS 3 Zrotation Yrotation Xrotation
		JOINT upperback
		{
			OFFSET 0.004488 0.137956 0.026820
			CHANNELS 3 Zrotation Yrotation Xrotation
			JOINT chest
			{
				OFFSET -0.002265 0.056032 0.002855
				CHANNELS 3 Zrotation Yrotation Xrotation
				JOINT lowerneck
				{
					OFFSET -0.013390 0.211636 -0.033468
					CHANNELS 3 Zrotation Yrotation Xrotation
					JOINT upperneck
					{
						OFFSET 0.010113 0.088937 0.050410
						CHANNELS 3 Zrotation Yrotation Xrotation
						End Site
						{
							OFFSET 0.000000 0.000000 0.000000
						}
					}
				}
				JOINT lclavicle
				{
					OFFSET 0.071702 0.114000 -0.018898
					CHANNELS 3 Zrotation Yrotation Xrotation
					JOINT lshoulder
					{
						OFFSET 0.122921 0.045205 -0.019046
						CHANNELS 3 Zrotation Yrotation Xrotation
						JOINT lelbow
						{
							OFFSET 0.255332 -0.015649 -0.022946
							CHANNELS 3 Zrotation Yrotation Xrotation
							JOINT lwrist
							{
								OFFSET 0.265709 0.012698 -0.007375
								CHANNELS 3 Zrotation Yrotation Xrotation
								End Site
								{
									OFFSET 0.000000 0.000000 0.000000
								}
							}
						}
					}
				}
				JOINT rclavicle
				{
					OFFSET -0.082954 0.112472 -0.023707
					CHANNELS 3 Zrotation Yrotation Xrotation
					JOINT rshoulder
					{
						OFFSET -0.113228 0.046853 -0.008472
						CHANNELS 3 Zrotation Yrotation Xrotation
						JOINT relbow
						{
							OFFSET -0.260127 -0.014369 -0.031269
							CHANNELS 3 Zrotation Yrotation Xrotation
							JOINT rwrist
							{
								OFFSET -0.269108 0.006794 -0.006027
								CHANNELS 3 Zrotation Yrotation Xrotation
								End Site
								{
									OFFSET 0.000000 0.000000 0.000000
								}
							}
						}
					}
				}
			}
		}
	}
}
MOTION
Frames: 6
Frame Time: 0.033333
1.151574 0.183538 1.132663 -86.207910 2.306862 87.071340 0.293621 0.504825 6.084064 -2.632990 -14.994268 1.016252 6.030030 9.005011 -14.225266 0.000000 -0.000000 0.000000 3.575399 -1.585128 3.684368 5.268803 2.486340 4.539571 2.073629 -5.018208 -8.724475 0.000000 -0.000000 0.000000 -0.835898 0.385251 7.380888 2.211171 -3.491245 2.912333 0.622218 -3.424954 5.607293 4.432693 -4.381419 12.727839 1.688609 -6.578622 13.327559 -27.154552 5.593416 4.335253 -58.618986 -6.616332 5.815567 9.627671 -10.426271 4.698332 -4.965165 2.528777 -3.812268 24.944649 -3.513181 1.072130 58.764689 1.807160 11.187771 -12.444068 12.096471 0.847790 7.858695 -3.785006 -2.215698 
1.150153 0.183383 1.132691 -85.841356 2.378854 86.780973 0.433782 0.623651 6.572056 -2.592057 -15.175796 0.826251 5.669992 8.694490 -14.272034 0.000000 -0.000000 0.000000 3.668717 -2.255777 4.200232 5.181844 2.859860 4.346451 2.150552 -5.030285 -8.870808 0.000000 -0.000000 0.000000 -0.854956 0.204581 7.378317 2.284643 -3.417160 3.192096 0.538907 -3.332593 5.891506 4.795567 -4.408114 12.332169 2.211398 -7.082740 13.035786 -27.190402 6.971855 4.251753 -58.126561 -6.239198 5.764139 9.208516 -12.612259 4.002191 -4.958303 1.851979 -5.042665 25.073495 -4.429883 0.613980 58.798777 1.360179 10.916326 -12.097750 12.283268 0.029013 7.439927 -3.347457 -2.840582 
1.149829 0.182996 1.132912 -85.774615 2.438518 86.691566 0.468036 0.531802 6.793686 -2.527339 -15.272681 0.673631 5.626984 8.698142 -14.312658 0.000000 -0.000000 0.000000 3.776437 -2.261682 4.189549 5.152072 3.007227 4.584918 2.158913 -5.219521 -9.017534 0.000000 -0.000000 0.000000 -0.837581 0.133227 7.304509 2.280036 -3.277786 3.240411 0.512146 -3.318382 6.151963 4.932481 -3.924959 12.263180 1.976528 -6.667014 13.100574 -27.103374 8.076481 4.215524 -58.239613 -5.986529 5.749395 9.362923 -14.862774 3.307640 -4.426059 1.284396 -6.313334 25.128241 -4.990528 0.379263 59.016247 1.209842 11.020262 -12.114949 12.541686 -0.367565 7.155463 -3.289914 -3.344727 
1.150478 0.182732 1.133098 -85.991953 2.416693 86.819573 0.427256 0.389186 6.588253 -2.554008 -14.986879 0.733751 5.675173 8.677100 -14.418187 0.000000 -0.000000 0.000000 3.687010 -2.325482 4.385624 5.104129 2.583848 3.977899 2.483518 -4.564203 -8.869914 0.000000 -0.000000 0.000000 -0.871259 0.296831 7.202691 2.264032 -3.127707 3.017023 0.575467 -3.150525 6.186896 4.987160 -3.917261 12.223573 2.015327 -6.648114 13.280118 -26.964515 8.810797 4.215270 -58.819258 -5.986859 5.755688 9.796597 -16.431412 2.482531 -4.237874 0.458534 -7.563622 25.229327 -5.369045 0.387954 59.213902 1.312075 10.853837 -12.477171 12.388573 -0.893066 7.120658 -3.243327 -3.748564 
1.150487 0.182517 1.133122 -86.028967 2.430860 86.821687 0.455517 0.359223 6.542060 -2.594547 -14.931896 0.795404 5.607542 8.618630 -14.435544 0.000000 -0.000000 0.000000 3.677012 -2.325026 4.434985 5.109036 2.411942 3.964508 2.494414 -4.365103 -8.879874 0.000000 -0.000000 0.000000 -0.880889 0.333115 7.168326 2.289473 -3.042370 2.949862 0.636844 -3.071804 6.035120 4.831423 -4.113066 12.388139 1.955455 -6.653900 13.198928 -26.969126 8.938759 4.222552 -59.156554 -6.097809 5.750762 10.013946 -17.084185 2.113458 -3.954592 -0.070344 -7.557094 25.056285 -5.569171 0.453158 59.419381 1.391293 10.541293 -12.626985 12.286975 -1.319497 7.160452 -3.125002 -4.146859 
1.150416 0.182150 1.133331 -86.211560 2.436571 86.847988 0.410941 0.394319 6.583123 -2.521776 -14.829334 0.713442 5.502043 8.608377 -14.440322 0.000000 -0.000000 0.000000 3.665511 -2.240386 4.487771 5.078938 2.427387 3.913650 2.615413 -4.306974 -8.928465 0.000000 -0.000000 0.000000 -0.883661 0.500878 7.103964 2.300913 -2.824862 2.865161 0.718347 -3.079324 6.081495 4.881083 -3.959803 11.696613 2.058918 -6.598950 12.821967 -27.060401 8.845653 3.845508 -59.710229 -6.267364 5.923436 10.444011 -17.415774 1.700636 -3.839287 -0.281165 -7.991228 25.137499 -5.619232 0.280403 59.298363 1.593752 10.512893 -12.488598 12.453444 -1.832728 7.112396 -3.053496 -4.478654 
